<?xml version="1.0" encoding="UTF-8"?>
<svg xmlns="http://www.w3.org/2000/svg"
     viewBox="196.74 202.74 309.66 214.45"
     width="310" height="215">
  <g transform="translate(0,403)">
    <g transform="matrix(5.4377154,0,0,-5.4377154,351.69385,-93.424741)">
      <path
        d="M 0,0 C 6.072,4.413 11.608,8.049 17.162,10.59 19.686,9.329 22.713,7.633 26.244,5.505 22.706,3.019 19.146,0.185 15.566,-2.995 10.607,-1.83 4.71,-0.695 0,0 M 11.87,13.172 11.057,7.384 c -5.382,3.295 -11.2,5.963 -17.443,8.038 2.955,1.031 5.071,1.704 6.347,2.019 3.538,-0.909 7.507,-2.333 11.909,-4.269 m -23.058,0.317 c 3.535,0.006 7.274,-0.146 11.172,-0.462 -6.448,-2.854 -13.365,-6.731 -20.765,-11.653 -2.009,1.652 -3.87,2.974 -5.509,4.105 5.45,3.284 10.463,5.945 15.102,8.01 m 0.106,-6.103 C -3.745,3.065 5.46,-3.976 10.132,-7.844 l -10.151,-9.739 c -6.641,6.475 -12.073,11.544 -16.296,15.209 2.464,4.931 4.292,8.246 5.233,9.76 m 4.63,-0.072 c 0,2.048 2.858,3.708 6.383,3.708 3.524,0 6.382,-1.66 6.382,-3.708 0,-2.048 -2.858,-3.708 -6.382,-3.708 -3.525,0 -6.383,1.66 -6.383,3.708"
        style="fill:#001f55;fill-rule:evenodd;stroke:none"/>
    </g>
  </g>
</svg>
